<svg width="113" height="50" xmlns="http://www.w3.org/2000/svg"><defs><linearGradient x1="1.829%" y1="24.545%" x2="96.341%" y2="24.545%" id="a"><stop stop-color="#E61E4D" offset="0%"/><stop stop-color="#E31C5F" offset="51.042%"/><stop stop-color="#D70466" offset="100%"/></linearGradient></defs><g fill="none"><path fill="url(#a)" d="M0 0H113V50H0z"/><path d="M93.498 22.64l3.75 11.22 3.39-11.22h4.44l-6.51 17.34c-.6 1.6-1.37 2.77-2.31 3.51-.92.74-2.04 1.11-3.36 1.11-.54 0-1.05-.06-1.53-.18-.48-.1-.93-.27-1.35-.51l.81-3.3c.22.1.48.18.78.24.3.08.58.12.84.12.58 0 1.08-.16 1.5-.48.44-.3.8-.79 1.08-1.47l.27-.69-6.39-15.69h4.59zm-47.88-.45c1.04 0 2 .21 2.88.63.88.42 1.65 1.01 2.31 1.77.66.74 1.17 1.61 1.53 2.61.38 1 .57 2.09.57 3.27 0 1.2-.19 2.31-.57 3.33a8.676 8.676 0 0 1-1.59 2.7c-.68.76-1.48 1.36-2.4 1.8-.92.42-1.91.63-2.97.63-.98 0-1.87-.19-2.67-.57-.8-.4-1.47-.95-2.01-1.65v7.59h-4.2V22.64h3.87l.12 2.31c.54-.86 1.26-1.53 2.16-2.01.9-.5 1.89-.75 2.97-.75zM11.293 6.044c6.739 2.039 13.01 6.319 17.24 11.137h-9.265v21.3h11.346a13.613 13.613 0 0 1-8.182 4.578c-7.545 1.21-14.011-3.672-15.253-11.606-.408-2.61-.12-4.861.871-8.074l.14-.444.28-.85.15-.444.72-2.072c1.747-5.1 2.092-8.259.744-12.252-.258-.764.445-1.504 1.21-1.273zm52.251 16.148c1.18 0 2.27.21 3.27.63 1 .42 1.87 1.01 2.61 1.77.74.74 1.31 1.62 1.71 2.64.42 1 .63 2.1.63 3.3 0 1.2-.21 2.31-.63 3.33a8.09 8.09 0 0 1-1.77 2.67c-.74.76-1.62 1.35-2.64 1.77-1 .42-2.1.63-3.3.63-1.18 0-2.27-.21-3.27-.63-1-.42-1.87-1-2.61-1.74a8.332 8.332 0 0 1-1.74-2.67c-.4-1.02-.6-2.13-.6-3.33 0-1.2.21-2.3.63-3.3.42-1.02 1-1.91 1.74-2.67.76-.76 1.64-1.35 2.64-1.77 1.02-.42 2.13-.63 3.33-.63zm14.094.45l2.91 4.77 2.97-4.77h4.59l-5.25 7.5 5.91 8.34h-4.95l-3.33-5.46-3.42 5.46h-4.83l5.94-8.37-5.28-7.47h4.74zm-33.01 3.33c-.76 0-1.44.2-2.04.6-.6.4-1.08.95-1.44 1.65-.34.68-.51 1.46-.51 2.34 0 .88.17 1.67.51 2.37.36.68.84 1.22 1.44 1.62.6.4 1.28.6 2.04.6s1.44-.2 2.04-.6c.6-.4 1.07-.94 1.41-1.62.36-.7.54-1.49.54-2.37 0-.88-.18-1.66-.54-2.34-.34-.7-.81-1.25-1.41-1.65-.6-.4-1.28-.6-2.04-.6zm18.856 0c-.76 0-1.44.2-2.04.6-.6.4-1.08.95-1.44 1.65-.34.68-.51 1.46-.51 2.34 0 .88.17 1.67.51 2.37.36.68.84 1.22 1.44 1.62.6.4 1.28.6 2.04.6s1.44-.2 2.04-.6c.6-.4 1.07-.94 1.41-1.62.36-.7.54-1.49.54-2.37 0-.88-.18-1.66-.54-2.34-.34-.7-.81-1.25-1.41-1.65-.6-.4-1.28-.6-2.04-.6zm-32.11-4.98c1.286 2.087 2.143 4.192 2.455 6.188a13.97 13.97 0 0 1-.876 7.491h-9.365v-5.22h8.07v-3.81h-8.07v-4.65h7.785z" fill="#FFF"/></g></svg>